# xmcd CD database file
#
# Track frame offsets:
#	150
#	5497
#	24803
#	38870
#	62172
#	76448
#	87118
#	109096
#	117834
#	128885
#	149933
#
# Disc length: 2223 seconds
#
# Revision: 0
# Processed by: cddbd v1.5.1PL0 Copyright (c) Steve Scherf et al.
# Submitted via: CDex 1.51
#
DISCID=8f08ad0b
DTITLE=黒棟ムルムル(白黒法師) - 偽メシア
DYEAR=2001
DGENRE=Instrumental
TTITLE0=悲しみ(intro)
TTITLE1=侵略
TTITLE2=グリーン
TTITLE3=記憶
TTITLE4=許婚
TTITLE5=裏切り
TTITLE6=湖底
TTITLE7=デンマーク北
TTITLE8=難攻不落
TTITLE9=死神
TTITLE10=悲しみ(chill out)
EXTD=YEAR: 2001
EXTT0=
EXTT1=
EXTT2=
EXTT3=
EXTT4=
EXTT5=
EXTT6=
EXTT7=
EXTT8=
EXTT9=
EXTT10=
PLAYORDER=
